<svg width="60" height="60" viewBox="0 0 60 60" fill="none" xmlns="http://www.w3.org/2000/svg">
<rect x="0.5" y="0.394531" width="59" height="59" fill="#36F272"/>
<path d="M21.8097 24.1701C21.696 23.0243 21.2083 22.1341 20.3466 21.4996C19.4848 20.8652 18.3153 20.5479 16.8381 20.5479C15.8343 20.5479 14.9867 20.69 14.2955 20.9741C13.6042 21.2487 13.0739 21.6322 12.7045 22.1246C12.3447 22.6171 12.1648 23.1758 12.1648 23.8008C12.1458 24.3216 12.2547 24.7762 12.4915 25.1644C12.7377 25.5527 13.0739 25.8888 13.5 26.1729C13.9261 26.4476 14.4186 26.689 14.9773 26.8974C15.536 27.0962 16.1326 27.2667 16.767 27.4087L19.3807 28.0337C20.6496 28.3178 21.8144 28.6966 22.875 29.1701C23.9356 29.6436 24.8542 30.226 25.6307 30.9173C26.4072 31.6085 27.0085 32.4229 27.4347 33.3604C27.8703 34.2979 28.0928 35.3728 28.1023 36.5849C28.0928 38.3652 27.6383 39.9087 26.7386 41.2156C25.8485 42.5129 24.5606 43.5214 22.875 44.2411C21.1989 44.9513 19.1771 45.3065 16.8097 45.3065C14.4612 45.3065 12.4157 44.9466 10.6733 44.2269C8.94034 43.5072 7.58617 42.4419 6.6108 41.0309C5.64489 39.6104 5.13826 37.8538 5.09091 35.761H11.0426C11.1089 36.7364 11.3883 37.5508 11.8807 38.2042C12.3826 38.8481 13.0502 39.3358 13.8835 39.6673C14.7263 39.9892 15.678 40.1502 16.7386 40.1502C17.7803 40.1502 18.6847 39.9987 19.4517 39.6957C20.2282 39.3926 20.8295 38.9712 21.2557 38.4315C21.6818 37.8917 21.8949 37.2714 21.8949 36.5707C21.8949 35.9173 21.7008 35.368 21.3125 34.9229C20.9337 34.4779 20.375 34.0991 19.6364 33.7866C18.9072 33.4741 18.0123 33.19 16.9517 32.9343L13.7841 32.1388C11.3314 31.5423 9.39489 30.6095 7.97443 29.3406C6.55398 28.0716 5.84848 26.3623 5.85795 24.2127C5.84848 22.4513 6.31723 20.9125 7.2642 19.5962C8.22064 18.2799 9.5322 17.2525 11.1989 16.5138C12.8655 15.7752 14.7595 15.4059 16.8807 15.4059C19.0398 15.4059 20.9242 15.7752 22.5341 16.5138C24.1534 17.2525 25.4129 18.2799 26.3125 19.5962C27.2121 20.9125 27.6761 22.4371 27.7045 24.1701H21.8097ZM32.2393 44.8945V15.8036H43.8871C46.0272 15.8036 47.8123 16.1209 49.2422 16.7553C50.6721 17.3898 51.7469 18.2705 52.4666 19.3974C53.1863 20.5148 53.5462 21.8027 53.5462 23.261C53.5462 24.3974 53.3189 25.3964 52.8643 26.2582C52.4098 27.1104 51.7848 27.8112 50.9893 28.3604C50.2034 28.9002 49.3037 29.2837 48.2905 29.511V29.7951C49.3984 29.8424 50.4354 30.1549 51.4013 30.7326C52.3767 31.3103 53.1674 32.1199 53.7734 33.1616C54.3795 34.1938 54.6825 35.4248 54.6825 36.8548C54.6825 38.3983 54.299 39.7762 53.532 40.9883C52.7744 42.1909 51.6522 43.1426 50.1655 43.8434C48.6787 44.5442 46.8464 44.8945 44.6683 44.8945H32.2393ZM38.3899 39.8661H43.4041C45.1181 39.8661 46.3681 39.5394 47.1541 38.886C47.9401 38.2231 48.3331 37.3424 48.3331 36.244C48.3331 35.439 48.139 34.7288 47.7507 34.1133C47.3625 33.4978 46.8085 33.0148 46.0888 32.6644C45.3786 32.314 44.531 32.1388 43.5462 32.1388H38.3899V39.8661ZM38.3899 27.9769H42.9496C43.7924 27.9769 44.5405 27.8301 45.1939 27.5366C45.8568 27.2335 46.3776 26.8074 46.7564 26.2582C47.1446 25.7089 47.3388 25.0508 47.3388 24.2837C47.3388 23.2326 46.9647 22.3851 46.2166 21.7411C45.478 21.0972 44.4268 20.7752 43.0632 20.7752H38.3899V27.9769Z" fill="black"/>
</svg>
