<svg width="452" height="60" viewBox="0 0 452 60" fill="none" xmlns="http://www.w3.org/2000/svg">
<circle cx="29.7445" cy="29.5535" r="29.5" fill="#36F272"/>
<path d="M104.675 55.9294C101.045 55.9294 97.7922 55.3401 94.9165 54.1616C92.0409 52.983 89.7309 51.2387 87.9867 48.9288C86.2895 46.6188 85.3938 43.8374 85.2996 40.5846H98.1693C98.3579 42.4232 98.9943 43.8374 100.079 44.8274C101.163 45.7703 102.577 46.2417 104.321 46.2417C106.113 46.2417 107.527 45.841 108.564 45.0396C109.601 44.191 110.12 43.036 110.12 41.5746C110.12 40.3489 109.696 39.3354 108.847 38.534C108.046 37.7325 107.032 37.0726 105.806 36.554C104.628 36.0354 102.931 35.4462 100.715 34.7862C97.5094 33.7962 94.893 32.8062 92.8659 31.8162C90.8388 30.8262 89.0945 29.3648 87.6331 27.432C86.1717 25.4992 85.441 22.9771 85.441 19.8657C85.441 15.2458 87.1145 11.6394 90.4616 9.04659C93.8087 6.40663 98.1693 5.08666 103.544 5.08666C109.012 5.08666 113.42 6.40663 116.767 9.04659C120.114 11.6394 121.905 15.2693 122.141 19.9364H109.059C108.965 18.3336 108.376 17.0843 107.291 16.1886C106.207 15.2458 104.816 14.7743 103.119 14.7743C101.658 14.7743 100.479 15.1751 99.5836 15.9765C98.6879 16.7307 98.2401 17.8386 98.2401 19.3C98.2401 20.9028 98.9943 22.1521 100.503 23.0478C102.011 23.9435 104.369 24.9099 107.574 25.947C110.78 27.0313 113.373 28.0684 115.353 29.0584C117.38 30.0484 119.124 31.4862 120.585 33.3719C122.047 35.2576 122.778 37.6854 122.778 40.6553C122.778 43.4839 122.047 46.0531 120.585 48.3631C119.171 50.673 117.097 52.5116 114.363 53.8787C111.628 55.2458 108.399 55.9294 104.675 55.9294Z" fill="white"/>
<path d="M179.86 15.5522C184.762 15.5522 188.652 17.0372 191.527 20.0071C194.45 22.9771 195.911 27.102 195.911 32.3819V55.4344H183.89V34.0083C183.89 31.4626 183.207 29.5062 181.84 28.1391C180.52 26.7249 178.681 26.0177 176.324 26.0177C173.967 26.0177 172.105 26.7249 170.738 28.1391C169.418 29.5062 168.758 31.4626 168.758 34.0083V55.4344H156.736V34.0083C156.736 31.4626 156.053 29.5062 154.686 28.1391C153.366 26.7249 151.527 26.0177 149.17 26.0177C146.813 26.0177 144.951 26.7249 143.584 28.1391C142.264 29.5062 141.604 31.4626 141.604 34.0083V55.4344H129.512V15.9765H141.604V20.9264C142.829 19.2764 144.432 17.98 146.412 17.0372C148.392 16.0472 150.631 15.5522 153.13 15.5522C156.1 15.5522 158.74 16.1886 161.05 17.4615C163.407 18.7343 165.246 20.5493 166.565 22.9064C167.933 20.7378 169.795 18.97 172.152 17.6029C174.509 16.2358 177.078 15.5522 179.86 15.5522Z" fill="white"/>
<path d="M201.257 35.6347C201.257 31.5805 202.011 28.0213 203.52 24.957C205.075 21.8928 207.173 19.5357 209.813 17.8857C212.453 16.2358 215.4 15.4108 218.652 15.4108C221.434 15.4108 223.862 15.9765 225.936 17.1079C228.057 18.2393 229.684 19.7243 230.815 21.5628V15.9765H242.907V55.4344H230.815V49.8481C229.636 51.6866 227.986 53.1716 225.865 54.303C223.791 55.4344 221.363 56.0001 218.582 56.0001C215.376 56.0001 212.453 55.1751 209.813 53.5251C207.173 51.828 205.075 49.4473 203.52 46.3831C202.011 43.2717 201.257 39.6889 201.257 35.6347ZM230.815 35.7054C230.815 32.6883 229.966 30.3077 228.269 28.5634C226.619 26.8191 224.592 25.947 222.188 25.947C219.784 25.947 217.733 26.8191 216.036 28.5634C214.386 30.2605 213.561 32.6176 213.561 35.6347C213.561 38.6518 214.386 41.0561 216.036 42.8475C217.733 44.5917 219.784 45.4638 222.188 45.4638C224.592 45.4638 226.619 44.5917 228.269 42.8475C229.966 41.1032 230.815 38.7225 230.815 35.7054Z" fill="white"/>
<path d="M263.04 22.5528C264.454 20.3843 266.222 18.6871 268.343 17.4615C270.465 16.1886 272.822 15.5522 275.415 15.5522V28.3513H272.091C269.074 28.3513 266.811 29.0113 265.303 30.3312C263.794 31.6041 263.04 33.8669 263.04 37.1197V55.4344H250.948V15.9765H263.04V22.5528Z" fill="white"/>
<path d="M302.479 45.181V55.4344H296.327C291.943 55.4344 288.525 54.3737 286.073 52.2523C283.622 50.0838 282.396 46.5717 282.396 41.716V26.0177H277.588V15.9765H282.396V6.35949H294.488V15.9765H302.408V26.0177H294.488V41.8575C294.488 43.036 294.771 43.8846 295.337 44.4031C295.903 44.9217 296.845 45.181 298.165 45.181H302.479Z" fill="white"/>
<path d="M314.659 25.3813C315.932 22.6942 317.888 20.5021 320.528 18.805C323.215 17.1079 326.374 16.2593 330.004 16.2593C333.54 16.2593 336.698 17.0843 339.479 18.7343C342.261 20.3371 344.429 22.6471 345.985 25.6642C347.588 28.6341 348.389 32.0991 348.389 36.059C348.389 40.0189 347.588 43.5074 345.985 46.5245C344.429 49.5416 342.237 51.8752 339.409 53.5251C336.627 55.1751 333.492 56.0001 330.004 56.0001C326.327 56.0001 323.145 55.1751 320.458 53.5251C317.818 51.828 315.885 49.6359 314.659 46.9488V55.4344H309.78V3.10669H314.659V25.3813ZM343.369 36.059C343.369 32.8533 342.732 30.0955 341.459 27.7856C340.234 25.4285 338.537 23.6371 336.368 22.4114C334.2 21.1857 331.748 20.5728 329.014 20.5728C326.374 20.5728 323.946 21.2092 321.73 22.4821C319.562 23.7549 317.841 25.5699 316.568 27.927C315.296 30.2841 314.659 33.0183 314.659 36.1297C314.659 39.2411 315.296 41.9753 316.568 44.3324C317.841 46.6895 319.562 48.5045 321.73 49.7773C323.946 51.0502 326.374 51.6866 329.014 51.6866C331.748 51.6866 334.2 51.0737 336.368 49.8481C338.537 48.5752 340.234 46.7602 341.459 44.4031C342.732 41.9989 343.369 39.2175 343.369 36.059Z" fill="white"/>
<path d="M391.723 34.1497C391.723 35.8469 391.676 37.1433 391.581 38.039H359.548C359.69 40.9618 360.397 43.4603 361.67 45.5346C362.942 47.6088 364.616 49.1881 366.69 50.2723C368.764 51.3095 371.027 51.828 373.479 51.828C376.684 51.828 379.371 51.0502 381.54 49.4945C383.756 47.9388 385.217 45.841 385.924 43.201H391.157C390.214 46.9724 388.187 50.0602 385.076 52.4644C382.011 54.8215 378.146 56.0001 373.479 56.0001C369.849 56.0001 366.596 55.1987 363.72 53.5958C360.845 51.9459 358.582 49.6359 356.932 46.666C355.329 43.6489 354.528 40.1368 354.528 36.1297C354.528 32.1226 355.329 28.6105 356.932 25.5935C358.535 22.5764 360.774 20.2664 363.65 18.6636C366.525 17.0607 369.802 16.2593 373.479 16.2593C377.156 16.2593 380.361 17.0607 383.096 18.6636C385.877 20.2664 387.998 22.4349 389.46 25.1692C390.968 27.8563 391.723 30.8498 391.723 34.1497ZM386.702 34.0083C386.749 31.1326 386.16 28.6813 384.934 26.6542C383.756 24.627 382.129 23.0949 380.055 22.0578C377.981 21.0207 375.718 20.5021 373.267 20.5021C369.589 20.5021 366.455 21.6807 363.862 24.0378C361.269 26.3949 359.831 29.7184 359.548 34.0083H386.702Z" fill="white"/>
<path d="M406.507 20.9971V44.9688C406.507 47.326 406.954 48.9524 407.85 49.8481C408.746 50.7438 410.325 51.1916 412.588 51.1916H417.114V55.4344H411.81C408.322 55.4344 405.729 54.633 404.032 53.0301C402.335 51.3802 401.486 48.6931 401.486 44.9688V20.9971H396.112V16.825H401.486V7.13734H406.507V16.825H417.114V20.9971H406.507Z" fill="white"/>
<path d="M437.864 56.0001C433.433 56.0001 429.803 54.9865 426.974 52.9594C424.193 50.8852 422.637 48.0802 422.307 44.5446H427.398C427.634 46.7131 428.648 48.4809 430.439 49.8481C432.278 51.168 434.729 51.828 437.793 51.828C440.48 51.828 442.578 51.1916 444.087 49.9188C445.643 48.6459 446.42 47.0667 446.42 45.181C446.42 43.861 445.996 42.7767 445.148 41.9282C444.299 41.0796 443.215 40.4196 441.895 39.9482C440.622 39.4297 438.878 38.8875 436.662 38.3218C433.786 37.5675 431.453 36.8133 429.661 36.059C427.87 35.3047 426.338 34.1969 425.065 32.7355C423.839 31.2269 423.226 29.2234 423.226 26.7249C423.226 24.8392 423.792 23.0949 424.924 21.4921C426.055 19.8893 427.658 18.6164 429.732 17.6736C431.806 16.7307 434.163 16.2593 436.803 16.2593C440.952 16.2593 444.299 17.32 446.845 19.4414C449.39 21.5157 450.757 24.3913 450.946 28.0684H445.996C445.855 25.8056 444.959 23.9906 443.309 22.6235C441.706 21.2092 439.49 20.5021 436.662 20.5021C434.163 20.5021 432.136 21.0914 430.581 22.2699C429.025 23.4485 428.247 24.9099 428.247 26.6542C428.247 28.1627 428.695 29.412 429.591 30.4019C430.533 31.3448 431.688 32.0991 433.056 32.6648C434.423 33.1833 436.261 33.7726 438.571 34.4326C441.353 35.1869 443.568 35.9176 445.218 36.6247C446.868 37.3318 448.282 38.369 449.461 39.7361C450.64 41.1032 451.252 42.9182 451.3 45.181C451.3 47.2552 450.734 49.1173 449.602 50.7673C448.471 52.3702 446.892 53.643 444.865 54.5858C442.838 55.5287 440.504 56.0001 437.864 56.0001Z" fill="white"/>
</svg>
